<?xml version="1.0" encoding="UTF-8"?>
<!DOCTYPE svg PUBLIC "-//W3C//DTD SVG 1.1//EN" "http://www.w3.org/Graphics/SVG/1.1/DTD/svg11.dtd">
<!-- Creator: CorelDRAW 2021 (64-Bit) -->
<svg xmlns="http://www.w3.org/2000/svg" xml:space="preserve" width="21.0584mm" height="21.0584mm" version="1.1" style="shape-rendering:geometricPrecision; text-rendering:geometricPrecision; image-rendering:optimizeQuality; fill-rule:evenodd; clip-rule:evenodd"
viewBox="0 0 232.42 232.42"
 xmlns:xlink="http://www.w3.org/1999/xlink"
 xmlns:xodm="http://www.corel.com/coreldraw/odm/2003">
 <defs>
  <style type="text/css">
   <![CDATA[
    .fil0 {fill:#00A4BA}
    .fil1 {fill:white;fill-rule:nonzero}
   ]]>
  </style>
    <clipPath id="id0">
     <path d="M103.9 63.47c36.07,-1.31 53.6,32.88 39.56,86.66l-39.56 -0 0 -18.82 28.42 -0.07 -28.42 -48.17 0 99.41 0.61 -0c11.41,-0.02 20.36,-1.05 26.85,-3.19 6.49,-2.14 11.65,-5.12 15.52,-8.99 5.4,-5.44 9.63,-12.78 12.66,-21.97 3.02,-9.19 4.55,-20.32 4.55,-33.42 0,-18.14 -2.98,-32.09 -8.91,-41.84 -5.93,-9.76 -13.14,-16.29 -21.65,-19.59 -6.13,-2.38 -16,-3.55 -29.63,-3.55l-36.32 0 0 132.54 -0.32 20.32c-14.47,-0.03 -22.67,-5.22 -22.66,-19.96l0 -133.49c0.81,-12.67 8.02,-19.49 22.47,-19.73l37.19 0c13.46,0 23.74,0.81 30.84,2.46 9.92,2.3 18.38,6.45 25.4,12.42 9.15,7.74 15.96,17.58 20.48,29.59 4.55,12.01 6.81,25.76 6.81,41.2 0,13.14 -1.53,24.79 -4.6,34.95 -3.06,10.16 -7.01,18.58 -11.81,25.24 -4.84,6.65 -10.08,11.89 -15.8,15.68 -5.68,3.83 -12.58,6.73 -20.64,8.71 -8.1,1.98 -17.37,2.94 -27.86,2.94l-26.08 0 0 -139.33 22.88 0z"/>
    </clipPath>
 </defs>
 <g id="Layer_x0020_1">
  <metadata id="CorelCorpID_0Corel-Layer"/>
  <rect class="fil0" x="-0" y="-0" width="232.42" height="232.42" rx="46.25" ry="46.25"/>
  <path class="fil1" d="M103.9 63.47c36.07,-1.31 53.6,32.88 39.56,86.66l-39.56 -0 0 -18.82 28.42 -0.07 -28.42 -48.17 0 99.41 0.61 -0c11.41,-0.02 20.36,-1.05 26.85,-3.19 6.49,-2.14 11.65,-5.12 15.52,-8.99 5.4,-5.44 9.63,-12.78 12.66,-21.97 3.02,-9.19 4.55,-20.32 4.55,-33.42 0,-18.14 -2.98,-32.09 -8.91,-41.84 -5.93,-9.76 -13.14,-16.29 -21.65,-19.59 -6.13,-2.38 -16,-3.55 -29.63,-3.55l-36.32 0 0 132.54 -0.32 20.32c-14.47,-0.03 -22.67,-5.22 -22.66,-19.96l0 -133.49c0.81,-12.67 8.02,-19.49 22.47,-19.73l37.19 0c13.46,0 23.74,0.81 30.84,2.46 9.92,2.3 18.38,6.45 25.4,12.42 9.15,7.74 15.96,17.58 20.48,29.59 4.55,12.01 6.81,25.76 6.81,41.2 0,13.14 -1.53,24.79 -4.6,34.95 -3.06,10.16 -7.01,18.58 -11.81,25.24 -4.84,6.65 -10.08,11.89 -15.8,15.68 -5.68,3.83 -12.58,6.73 -20.64,8.71 -8.1,1.98 -17.37,2.94 -27.86,2.94l-26.08 0 0 -139.33 22.88 0z"/>
  <g id="_2091271282192">
   <g style="clip-path:url(#id0)">
    <image x="44.61" y="29.62" width="143.19" height="173.18" xlink:href="devdemy_Images\devdemy_ImgID1.png"/>
   </g>
  </g>
 </g>
</svg>
